<svg width="10" height="12" viewBox="0 0 10 12" fill="none" xmlns="http://www.w3.org/2000/svg">
<path d="M4.49952 11.37L0.323516 6.06L4.48152 0.75H6.38952L3.47352 4.44C3.35352 4.596 3.21552 4.752 3.05952 4.908C2.90352 5.052 2.77152 5.166 2.66352 5.25V5.412C2.81952 5.388 3.01752 5.37 3.25752 5.358C3.50952 5.346 3.73152 5.34 3.92352 5.34H9.86352V6.78H3.92352C3.73152 6.78 3.50952 6.768 3.25752 6.744C3.01752 6.72 2.81952 6.702 2.66352 6.69V6.852C2.74752 6.924 2.86152 7.038 3.00552 7.194C3.16152 7.35 3.31752 7.518 3.47352 7.698L6.38952 11.37H4.49952Z" fill="white"/>
</svg>
