<svg width="8" height="15" viewBox="0 0 8 15" fill="none" xmlns="http://www.w3.org/2000/svg">
<path d="M2.07752 10.094L2.04152 6.494H3.46352C4.06352 6.494 4.54352 6.332 4.90352 6.008C5.26352 5.684 5.44352 5.258 5.44352 4.73C5.44352 4.19 5.26352 3.764 4.90352 3.452C4.54352 3.128 4.05752 2.966 3.44552 2.966H0.763516V0.86H3.33752C4.22552 0.86 4.99352 1.022 5.64152 1.346C6.28952 1.658 6.79352 2.102 7.15352 2.678C7.51352 3.254 7.69352 3.938 7.69352 4.73C7.69352 5.462 7.53752 6.104 7.22552 6.656C6.92552 7.208 6.50552 7.646 5.96552 7.97C5.42552 8.294 4.79552 8.462 4.07552 8.474V10.094H2.07752ZM2.81552 14.09C2.44352 14.09 2.14352 13.982 1.91552 13.766C1.68752 13.538 1.57352 13.25 1.57352 12.902C1.57352 12.554 1.68752 12.272 1.91552 12.056C2.14352 11.828 2.44352 11.714 2.81552 11.714H3.35552C3.72752 11.714 4.02152 11.822 4.23752 12.038C4.46552 12.254 4.57952 12.542 4.57952 12.902C4.57952 13.25 4.46552 13.538 4.23752 13.766C4.00952 13.982 3.70952 14.09 3.33752 14.09H2.81552Z" fill="white"/>
</svg>
